<mxfile host="app.diagrams.net" modified="2024-04-02T08:12:16.765Z" agent="Mozilla/5.0 (Windows NT 10.0; Win64; x64) AppleWebKit/537.36 (KHTML, like Gecko) Chrome/123.0.0.0 Safari/537.36 Edg/123.0.0.0" etag="rHBIu0mCCctGFq4Wbx95" version="24.2.1" type="github">
  <diagram name="第 1 页" id="dgFni4hUP5cSdWjF9hMc">
    <mxGraphModel dx="1213" dy="738" grid="1" gridSize="10" guides="1" tooltips="1" connect="1" arrows="1" fold="1" page="1" pageScale="1" pageWidth="827" pageHeight="1169" math="0" shadow="0">
      <root>
        <mxCell id="0" />
        <mxCell id="1" parent="0" />
        <mxCell id="FSiC2wcye2wgbx9kc-YP-12" value="业务系统" style="swimlane;startSize=20;whiteSpace=wrap;html=1;sketch=1;hachureGap=4;jiggle=2;curveFitting=1;fontFamily=Architects Daughter;fontSource=https%3A%2F%2Ffonts.googleapis.com%2Fcss%3Ffamily%3DArchitects%2BDaughter;fontSize=16;" vertex="1" parent="1">
          <mxGeometry x="260" y="120" width="180" height="590" as="geometry" />
        </mxCell>
        <mxCell id="FSiC2wcye2wgbx9kc-YP-16" value="埋点活动信息" style="rounded=0;whiteSpace=wrap;html=1;sketch=1;hachureGap=4;jiggle=2;curveFitting=1;fontFamily=Architects Daughter;fontSource=https%3A%2F%2Ffonts.googleapis.com%2Fcss%3Ffamily%3DArchitects%2BDaughter;" vertex="1" parent="FSiC2wcye2wgbx9kc-YP-12">
          <mxGeometry x="20" y="70" width="120" height="60" as="geometry" />
        </mxCell>
        <mxCell id="FSiC2wcye2wgbx9kc-YP-19" value="" style="endArrow=classic;html=1;rounded=0;sketch=1;hachureGap=4;jiggle=2;curveFitting=1;fontFamily=Architects Daughter;fontSource=https%3A%2F%2Ffonts.googleapis.com%2Fcss%3Ffamily%3DArchitects%2BDaughter;entryX=0;entryY=0.5;entryDx=0;entryDy=0;" edge="1" parent="FSiC2wcye2wgbx9kc-YP-12" target="FSiC2wcye2wgbx9kc-YP-17">
          <mxGeometry width="50" height="50" relative="1" as="geometry">
            <mxPoint x="140" y="100" as="sourcePoint" />
            <mxPoint x="190" y="50" as="targetPoint" />
          </mxGeometry>
        </mxCell>
        <mxCell id="FSiC2wcye2wgbx9kc-YP-29" value="获取分区信息" style="rounded=0;whiteSpace=wrap;html=1;sketch=1;hachureGap=4;jiggle=2;curveFitting=1;fontFamily=Architects Daughter;fontSource=https%3A%2F%2Ffonts.googleapis.com%2Fcss%3Ffamily%3DArchitects%2BDaughter;" vertex="1" parent="FSiC2wcye2wgbx9kc-YP-12">
          <mxGeometry x="20" y="150" width="120" height="60" as="geometry" />
        </mxCell>
        <mxCell id="FSiC2wcye2wgbx9kc-YP-39" value="获取动作信息" style="rounded=0;whiteSpace=wrap;html=1;sketch=1;hachureGap=4;jiggle=2;curveFitting=1;fontFamily=Architects Daughter;fontSource=https%3A%2F%2Ffonts.googleapis.com%2Fcss%3Ffamily%3DArchitects%2BDaughter;" vertex="1" parent="FSiC2wcye2wgbx9kc-YP-12">
          <mxGeometry x="20" y="230" width="120" height="60" as="geometry" />
        </mxCell>
        <mxCell id="FSiC2wcye2wgbx9kc-YP-47" value="活动管理页面" style="rounded=0;whiteSpace=wrap;html=1;sketch=1;hachureGap=4;jiggle=2;curveFitting=1;fontFamily=Architects Daughter;fontSource=https%3A%2F%2Ffonts.googleapis.com%2Fcss%3Ffamily%3DArchitects%2BDaughter;" vertex="1" parent="FSiC2wcye2wgbx9kc-YP-12">
          <mxGeometry x="30" y="320" width="110" height="60" as="geometry" />
        </mxCell>
        <mxCell id="FSiC2wcye2wgbx9kc-YP-69" value="分区管理页面" style="rounded=0;whiteSpace=wrap;html=1;sketch=1;hachureGap=4;jiggle=2;curveFitting=1;fontFamily=Architects Daughter;fontSource=https%3A%2F%2Ffonts.googleapis.com%2Fcss%3Ffamily%3DArchitects%2BDaughter;" vertex="1" parent="FSiC2wcye2wgbx9kc-YP-12">
          <mxGeometry x="20" y="410" width="120" height="60" as="geometry" />
        </mxCell>
        <mxCell id="FSiC2wcye2wgbx9kc-YP-68" value="动作管理页面" style="rounded=0;whiteSpace=wrap;html=1;sketch=1;hachureGap=4;jiggle=2;curveFitting=1;fontFamily=Architects Daughter;fontSource=https%3A%2F%2Ffonts.googleapis.com%2Fcss%3Ffamily%3DArchitects%2BDaughter;" vertex="1" parent="FSiC2wcye2wgbx9kc-YP-12">
          <mxGeometry x="20" y="500" width="120" height="60" as="geometry" />
        </mxCell>
        <mxCell id="FSiC2wcye2wgbx9kc-YP-13" value="用户" style="swimlane;startSize=20;whiteSpace=wrap;html=1;sketch=1;hachureGap=4;jiggle=2;curveFitting=1;fontFamily=Architects Daughter;fontSource=https%3A%2F%2Ffonts.googleapis.com%2Fcss%3Ffamily%3DArchitects%2BDaughter;fontSize=16;" vertex="1" parent="1">
          <mxGeometry x="80" y="120" width="180" height="590" as="geometry" />
        </mxCell>
        <mxCell id="FSiC2wcye2wgbx9kc-YP-46" value="" style="sketch=0;outlineConnect=0;fontColor=#232F3E;gradientColor=none;fillColor=#232F3D;strokeColor=none;dashed=0;verticalLabelPosition=bottom;verticalAlign=top;align=center;html=1;fontSize=12;fontStyle=0;aspect=fixed;pointerEvents=1;shape=mxgraph.aws4.user;hachureGap=4;jiggle=2;curveFitting=1;fontFamily=Architects Daughter;fontSource=https%3A%2F%2Ffonts.googleapis.com%2Fcss%3Ffamily%3DArchitects%2BDaughter;" vertex="1" parent="FSiC2wcye2wgbx9kc-YP-13">
          <mxGeometry x="20" y="370" width="78" height="78" as="geometry" />
        </mxCell>
        <mxCell id="FSiC2wcye2wgbx9kc-YP-14" value="atracking" style="swimlane;startSize=20;whiteSpace=wrap;html=1;sketch=1;hachureGap=4;jiggle=2;curveFitting=1;fontFamily=Architects Daughter;fontSource=https%3A%2F%2Ffonts.googleapis.com%2Fcss%3Ffamily%3DArchitects%2BDaughter;fontSize=17;" vertex="1" parent="1">
          <mxGeometry x="440" y="120" width="200" height="590" as="geometry" />
        </mxCell>
        <mxCell id="FSiC2wcye2wgbx9kc-YP-17" value="活动记录操作接口" style="rounded=0;whiteSpace=wrap;html=1;sketch=1;hachureGap=4;jiggle=2;curveFitting=1;fontFamily=Architects Daughter;fontSource=https%3A%2F%2Ffonts.googleapis.com%2Fcss%3Ffamily%3DArchitects%2BDaughter;" vertex="1" parent="FSiC2wcye2wgbx9kc-YP-14">
          <mxGeometry x="40" y="70" width="120" height="50" as="geometry" />
        </mxCell>
        <mxCell id="FSiC2wcye2wgbx9kc-YP-25" value="Restful" style="text;strokeColor=none;fillColor=none;html=1;fontSize=14;fontStyle=1;verticalAlign=middle;align=center;fontFamily=Architects Daughter;fontSource=https%3A%2F%2Ffonts.googleapis.com%2Fcss%3Ffamily%3DArchitects%2BDaughter;labelBorderColor=default;fontColor=#FF3333;" vertex="1" parent="FSiC2wcye2wgbx9kc-YP-14">
          <mxGeometry x="-26" y="80" width="40" height="20" as="geometry" />
        </mxCell>
        <mxCell id="FSiC2wcye2wgbx9kc-YP-26" value="RPC" style="text;strokeColor=none;fillColor=none;html=1;fontSize=14;fontStyle=1;verticalAlign=middle;align=center;fontFamily=Architects Daughter;fontSource=https%3A%2F%2Ffonts.googleapis.com%2Fcss%3Ffamily%3DArchitects%2BDaughter;labelBorderColor=default;fontColor=#FF3333;" vertex="1" parent="FSiC2wcye2wgbx9kc-YP-14">
          <mxGeometry x="-26" y="100" width="40" height="20" as="geometry" />
        </mxCell>
        <mxCell id="FSiC2wcye2wgbx9kc-YP-27" value="" style="endArrow=classic;html=1;rounded=0;sketch=1;hachureGap=4;jiggle=2;curveFitting=1;fontFamily=Architects Daughter;fontSource=https%3A%2F%2Ffonts.googleapis.com%2Fcss%3Ffamily%3DArchitects%2BDaughter;entryX=0;entryY=0.5;entryDx=0;entryDy=0;fillColor=#ffcd28;gradientColor=#ffa500;strokeColor=#d79b00;" edge="1" parent="FSiC2wcye2wgbx9kc-YP-14" target="FSiC2wcye2wgbx9kc-YP-18">
          <mxGeometry width="50" height="50" relative="1" as="geometry">
            <mxPoint x="150" y="100" as="sourcePoint" />
            <mxPoint x="200" y="50" as="targetPoint" />
          </mxGeometry>
        </mxCell>
        <mxCell id="FSiC2wcye2wgbx9kc-YP-28" value="Save" style="edgeLabel;html=1;align=center;verticalAlign=middle;resizable=0;points=[];sketch=1;hachureGap=4;jiggle=2;curveFitting=1;fontFamily=Architects Daughter;fontSource=https%3A%2F%2Ffonts.googleapis.com%2Fcss%3Ffamily%3DArchitects%2BDaughter;fontSize=14;fontColor=#3333FF;" vertex="1" connectable="0" parent="FSiC2wcye2wgbx9kc-YP-27">
          <mxGeometry x="-0.1407" y="-5" relative="1" as="geometry">
            <mxPoint x="11" y="-5" as="offset" />
          </mxGeometry>
        </mxCell>
        <mxCell id="FSiC2wcye2wgbx9kc-YP-34" value="查询分区信息接口" style="rounded=0;whiteSpace=wrap;html=1;sketch=1;hachureGap=4;jiggle=2;curveFitting=1;fontFamily=Architects Daughter;fontSource=https%3A%2F%2Ffonts.googleapis.com%2Fcss%3Ffamily%3DArchitects%2BDaughter;" vertex="1" parent="FSiC2wcye2wgbx9kc-YP-14">
          <mxGeometry x="40" y="150" width="120" height="60" as="geometry" />
        </mxCell>
        <mxCell id="FSiC2wcye2wgbx9kc-YP-40" value="查询动作信息接口" style="rounded=0;whiteSpace=wrap;html=1;sketch=1;hachureGap=4;jiggle=2;curveFitting=1;fontFamily=Architects Daughter;fontSource=https%3A%2F%2Ffonts.googleapis.com%2Fcss%3Ffamily%3DArchitects%2BDaughter;" vertex="1" parent="FSiC2wcye2wgbx9kc-YP-14">
          <mxGeometry x="40" y="230" width="120" height="60" as="geometry" />
        </mxCell>
        <mxCell id="FSiC2wcye2wgbx9kc-YP-48" value="活动管理" style="rounded=0;whiteSpace=wrap;html=1;sketch=1;hachureGap=4;jiggle=2;curveFitting=1;fontFamily=Architects Daughter;fontSource=https%3A%2F%2Ffonts.googleapis.com%2Fcss%3Ffamily%3DArchitects%2BDaughter;" vertex="1" parent="FSiC2wcye2wgbx9kc-YP-14">
          <mxGeometry x="40" y="310" width="120" height="30" as="geometry" />
        </mxCell>
        <mxCell id="FSiC2wcye2wgbx9kc-YP-60" value="活动报表" style="rounded=0;whiteSpace=wrap;html=1;sketch=1;hachureGap=4;jiggle=2;curveFitting=1;fontFamily=Architects Daughter;fontSource=https%3A%2F%2Ffonts.googleapis.com%2Fcss%3Ffamily%3DArchitects%2BDaughter;" vertex="1" parent="FSiC2wcye2wgbx9kc-YP-14">
          <mxGeometry x="40" y="360" width="120" height="30" as="geometry" />
        </mxCell>
        <mxCell id="FSiC2wcye2wgbx9kc-YP-75" value="分区增删改查操作" style="rounded=0;whiteSpace=wrap;html=1;sketch=1;hachureGap=4;jiggle=2;curveFitting=1;fontFamily=Architects Daughter;fontSource=https%3A%2F%2Ffonts.googleapis.com%2Fcss%3Ffamily%3DArchitects%2BDaughter;" vertex="1" parent="FSiC2wcye2wgbx9kc-YP-14">
          <mxGeometry x="40" y="410" width="120" height="60" as="geometry" />
        </mxCell>
        <mxCell id="FSiC2wcye2wgbx9kc-YP-76" value="动作增删改查操作" style="rounded=0;whiteSpace=wrap;html=1;sketch=1;hachureGap=4;jiggle=2;curveFitting=1;fontFamily=Architects Daughter;fontSource=https%3A%2F%2Ffonts.googleapis.com%2Fcss%3Ffamily%3DArchitects%2BDaughter;" vertex="1" parent="FSiC2wcye2wgbx9kc-YP-14">
          <mxGeometry x="40" y="500" width="120" height="60" as="geometry" />
        </mxCell>
        <mxCell id="FSiC2wcye2wgbx9kc-YP-81" value="RPC" style="text;strokeColor=none;fillColor=none;html=1;fontSize=14;fontStyle=1;verticalAlign=middle;align=center;fontFamily=Architects Daughter;fontSource=https%3A%2F%2Ffonts.googleapis.com%2Fcss%3Ffamily%3DArchitects%2BDaughter;labelBorderColor=default;fontColor=#FF3333;" vertex="1" parent="FSiC2wcye2wgbx9kc-YP-14">
          <mxGeometry x="-20" y="160" width="40" height="20" as="geometry" />
        </mxCell>
        <mxCell id="FSiC2wcye2wgbx9kc-YP-82" value="RPC" style="text;strokeColor=none;fillColor=none;html=1;fontSize=14;fontStyle=1;verticalAlign=middle;align=center;fontFamily=Architects Daughter;fontSource=https%3A%2F%2Ffonts.googleapis.com%2Fcss%3Ffamily%3DArchitects%2BDaughter;labelBorderColor=default;fontColor=#FF3333;" vertex="1" parent="FSiC2wcye2wgbx9kc-YP-14">
          <mxGeometry x="-20" y="240" width="40" height="20" as="geometry" />
        </mxCell>
        <mxCell id="FSiC2wcye2wgbx9kc-YP-15" value="数据库" style="swimlane;startSize=20;whiteSpace=wrap;html=1;sketch=1;hachureGap=4;jiggle=2;curveFitting=1;fontFamily=Architects Daughter;fontSource=https%3A%2F%2Ffonts.googleapis.com%2Fcss%3Ffamily%3DArchitects%2BDaughter;fontSize=16;" vertex="1" parent="1">
          <mxGeometry x="640" y="120" width="200" height="590" as="geometry" />
        </mxCell>
        <mxCell id="FSiC2wcye2wgbx9kc-YP-18" value="活动记录表" style="rounded=0;whiteSpace=wrap;html=1;sketch=1;hachureGap=4;jiggle=2;curveFitting=1;fontFamily=Architects Daughter;fontSource=https%3A%2F%2Ffonts.googleapis.com%2Fcss%3Ffamily%3DArchitects%2BDaughter;" vertex="1" parent="FSiC2wcye2wgbx9kc-YP-15">
          <mxGeometry x="40" y="70" width="120" height="50" as="geometry" />
        </mxCell>
        <mxCell id="FSiC2wcye2wgbx9kc-YP-35" value="分区信息表" style="rounded=0;whiteSpace=wrap;html=1;sketch=1;hachureGap=4;jiggle=2;curveFitting=1;fontFamily=Architects Daughter;fontSource=https%3A%2F%2Ffonts.googleapis.com%2Fcss%3Ffamily%3DArchitects%2BDaughter;" vertex="1" parent="FSiC2wcye2wgbx9kc-YP-15">
          <mxGeometry x="40" y="150" width="120" height="60" as="geometry" />
        </mxCell>
        <mxCell id="FSiC2wcye2wgbx9kc-YP-41" value="动作信息表" style="rounded=0;whiteSpace=wrap;html=1;sketch=1;hachureGap=4;jiggle=2;curveFitting=1;fontFamily=Architects Daughter;fontSource=https%3A%2F%2Ffonts.googleapis.com%2Fcss%3Ffamily%3DArchitects%2BDaughter;" vertex="1" parent="FSiC2wcye2wgbx9kc-YP-15">
          <mxGeometry x="40" y="230" width="120" height="60" as="geometry" />
        </mxCell>
        <mxCell id="FSiC2wcye2wgbx9kc-YP-36" style="edgeStyle=orthogonalEdgeStyle;rounded=0;sketch=1;hachureGap=4;jiggle=2;curveFitting=1;orthogonalLoop=1;jettySize=auto;html=1;entryX=0;entryY=0.5;entryDx=0;entryDy=0;fontFamily=Architects Daughter;fontSource=https%3A%2F%2Ffonts.googleapis.com%2Fcss%3Ffamily%3DArchitects%2BDaughter;" edge="1" parent="1" source="FSiC2wcye2wgbx9kc-YP-29" target="FSiC2wcye2wgbx9kc-YP-34">
          <mxGeometry relative="1" as="geometry" />
        </mxCell>
        <mxCell id="FSiC2wcye2wgbx9kc-YP-43" style="edgeStyle=orthogonalEdgeStyle;rounded=0;sketch=1;hachureGap=4;jiggle=2;curveFitting=1;orthogonalLoop=1;jettySize=auto;html=1;entryX=0;entryY=0.5;entryDx=0;entryDy=0;fontFamily=Architects Daughter;fontSource=https%3A%2F%2Ffonts.googleapis.com%2Fcss%3Ffamily%3DArchitects%2BDaughter;" edge="1" parent="1" source="FSiC2wcye2wgbx9kc-YP-39" target="FSiC2wcye2wgbx9kc-YP-40">
          <mxGeometry relative="1" as="geometry" />
        </mxCell>
        <mxCell id="FSiC2wcye2wgbx9kc-YP-44" style="edgeStyle=orthogonalEdgeStyle;rounded=0;sketch=1;hachureGap=4;jiggle=2;curveFitting=1;orthogonalLoop=1;jettySize=auto;html=1;entryX=0;entryY=0.5;entryDx=0;entryDy=0;fontFamily=Architects Daughter;fontSource=https%3A%2F%2Ffonts.googleapis.com%2Fcss%3Ffamily%3DArchitects%2BDaughter;fillColor=#ffcd28;gradientColor=#ffa500;strokeColor=#d79b00;" edge="1" parent="1" source="FSiC2wcye2wgbx9kc-YP-40" target="FSiC2wcye2wgbx9kc-YP-41">
          <mxGeometry relative="1" as="geometry" />
        </mxCell>
        <mxCell id="FSiC2wcye2wgbx9kc-YP-45" value="query" style="edgeLabel;html=1;align=center;verticalAlign=middle;resizable=0;points=[];sketch=1;hachureGap=4;jiggle=2;curveFitting=1;fontFamily=Architects Daughter;fontSource=https%3A%2F%2Ffonts.googleapis.com%2Fcss%3Ffamily%3DArchitects%2BDaughter;fontSize=14;fontColor=#3333FF;" vertex="1" connectable="0" parent="FSiC2wcye2wgbx9kc-YP-44">
          <mxGeometry x="0.0815" y="-2" relative="1" as="geometry">
            <mxPoint x="-3" y="-2" as="offset" />
          </mxGeometry>
        </mxCell>
        <mxCell id="FSiC2wcye2wgbx9kc-YP-61" style="edgeStyle=orthogonalEdgeStyle;rounded=0;sketch=1;hachureGap=4;jiggle=2;curveFitting=1;orthogonalLoop=1;jettySize=auto;html=1;entryX=1;entryY=0.5;entryDx=0;entryDy=0;fontFamily=Architects Daughter;fontSource=https%3A%2F%2Ffonts.googleapis.com%2Fcss%3Ffamily%3DArchitects%2BDaughter;exitX=1;exitY=0.5;exitDx=0;exitDy=0;fillColor=#ffcd28;strokeColor=#d79b00;gradientColor=#ffa500;" edge="1" parent="1" source="FSiC2wcye2wgbx9kc-YP-48" target="FSiC2wcye2wgbx9kc-YP-18">
          <mxGeometry relative="1" as="geometry">
            <Array as="points">
              <mxPoint x="590" y="450" />
              <mxPoint x="900" y="450" />
              <mxPoint x="900" y="220" />
            </Array>
          </mxGeometry>
        </mxCell>
        <mxCell id="FSiC2wcye2wgbx9kc-YP-62" value="delete" style="edgeLabel;html=1;align=center;verticalAlign=middle;resizable=0;points=[];sketch=1;hachureGap=4;jiggle=2;curveFitting=1;fontFamily=Architects Daughter;fontSource=https%3A%2F%2Ffonts.googleapis.com%2Fcss%3Ffamily%3DArchitects%2BDaughter;fontSize=14;fontColor=#3333FF;" vertex="1" connectable="0" parent="FSiC2wcye2wgbx9kc-YP-61">
          <mxGeometry x="0.3396" y="2" relative="1" as="geometry">
            <mxPoint as="offset" />
          </mxGeometry>
        </mxCell>
        <mxCell id="FSiC2wcye2wgbx9kc-YP-63" style="edgeStyle=orthogonalEdgeStyle;rounded=0;sketch=1;hachureGap=4;jiggle=2;curveFitting=1;orthogonalLoop=1;jettySize=auto;html=1;entryX=1;entryY=0.75;entryDx=0;entryDy=0;fontFamily=Architects Daughter;fontSource=https%3A%2F%2Ffonts.googleapis.com%2Fcss%3Ffamily%3DArchitects%2BDaughter;fillColor=#ffcd28;gradientColor=#ffa500;strokeColor=#d79b00;" edge="1" parent="1" source="FSiC2wcye2wgbx9kc-YP-60" target="FSiC2wcye2wgbx9kc-YP-18">
          <mxGeometry relative="1" as="geometry">
            <Array as="points">
              <mxPoint x="950" y="495" />
              <mxPoint x="950" y="235" />
            </Array>
          </mxGeometry>
        </mxCell>
        <mxCell id="FSiC2wcye2wgbx9kc-YP-64" value="不同维度查询" style="edgeLabel;html=1;align=center;verticalAlign=middle;resizable=0;points=[];sketch=1;hachureGap=4;jiggle=2;curveFitting=1;fontFamily=Architects Daughter;fontSource=https%3A%2F%2Ffonts.googleapis.com%2Fcss%3Ffamily%3DArchitects%2BDaughter;fontSize=14;fontColor=#3333FF;" vertex="1" connectable="0" parent="FSiC2wcye2wgbx9kc-YP-63">
          <mxGeometry x="-0.5437" y="-5" relative="1" as="geometry">
            <mxPoint x="-75" y="-5" as="offset" />
          </mxGeometry>
        </mxCell>
        <mxCell id="FSiC2wcye2wgbx9kc-YP-65" style="edgeStyle=orthogonalEdgeStyle;rounded=0;sketch=1;hachureGap=4;jiggle=2;curveFitting=1;orthogonalLoop=1;jettySize=auto;html=1;entryX=0;entryY=0.5;entryDx=0;entryDy=0;fontFamily=Architects Daughter;fontSource=https%3A%2F%2Ffonts.googleapis.com%2Fcss%3Ffamily%3DArchitects%2BDaughter;" edge="1" parent="1" source="FSiC2wcye2wgbx9kc-YP-46" target="FSiC2wcye2wgbx9kc-YP-47">
          <mxGeometry relative="1" as="geometry" />
        </mxCell>
        <mxCell id="FSiC2wcye2wgbx9kc-YP-66" style="edgeStyle=orthogonalEdgeStyle;rounded=0;sketch=1;hachureGap=4;jiggle=2;curveFitting=1;orthogonalLoop=1;jettySize=auto;html=1;entryX=0;entryY=0.5;entryDx=0;entryDy=0;fontFamily=Architects Daughter;fontSource=https%3A%2F%2Ffonts.googleapis.com%2Fcss%3Ffamily%3DArchitects%2BDaughter;" edge="1" parent="1" source="FSiC2wcye2wgbx9kc-YP-47" target="FSiC2wcye2wgbx9kc-YP-48">
          <mxGeometry relative="1" as="geometry" />
        </mxCell>
        <mxCell id="FSiC2wcye2wgbx9kc-YP-67" style="edgeStyle=orthogonalEdgeStyle;rounded=0;sketch=1;hachureGap=4;jiggle=2;curveFitting=1;orthogonalLoop=1;jettySize=auto;html=1;entryX=0;entryY=0.5;entryDx=0;entryDy=0;fontFamily=Architects Daughter;fontSource=https%3A%2F%2Ffonts.googleapis.com%2Fcss%3Ffamily%3DArchitects%2BDaughter;" edge="1" parent="1" source="FSiC2wcye2wgbx9kc-YP-47" target="FSiC2wcye2wgbx9kc-YP-60">
          <mxGeometry relative="1" as="geometry" />
        </mxCell>
        <mxCell id="FSiC2wcye2wgbx9kc-YP-73" style="edgeStyle=orthogonalEdgeStyle;rounded=0;sketch=1;hachureGap=4;jiggle=2;curveFitting=1;orthogonalLoop=1;jettySize=auto;html=1;entryX=0;entryY=0.5;entryDx=0;entryDy=0;fontFamily=Architects Daughter;fontSource=https%3A%2F%2Ffonts.googleapis.com%2Fcss%3Ffamily%3DArchitects%2BDaughter;" edge="1" parent="1" source="FSiC2wcye2wgbx9kc-YP-46" target="FSiC2wcye2wgbx9kc-YP-69">
          <mxGeometry relative="1" as="geometry" />
        </mxCell>
        <mxCell id="FSiC2wcye2wgbx9kc-YP-74" style="edgeStyle=orthogonalEdgeStyle;rounded=0;sketch=1;hachureGap=4;jiggle=2;curveFitting=1;orthogonalLoop=1;jettySize=auto;html=1;entryX=0;entryY=0.5;entryDx=0;entryDy=0;fontFamily=Architects Daughter;fontSource=https%3A%2F%2Ffonts.googleapis.com%2Fcss%3Ffamily%3DArchitects%2BDaughter;" edge="1" parent="1" source="FSiC2wcye2wgbx9kc-YP-46" target="FSiC2wcye2wgbx9kc-YP-68">
          <mxGeometry relative="1" as="geometry" />
        </mxCell>
        <mxCell id="FSiC2wcye2wgbx9kc-YP-77" style="edgeStyle=orthogonalEdgeStyle;rounded=0;sketch=1;hachureGap=4;jiggle=2;curveFitting=1;orthogonalLoop=1;jettySize=auto;html=1;entryX=1;entryY=0.5;entryDx=0;entryDy=0;fontFamily=Architects Daughter;fontSource=https%3A%2F%2Ffonts.googleapis.com%2Fcss%3Ffamily%3DArchitects%2BDaughter;fillColor=#ffcd28;gradientColor=#ffa500;strokeColor=#d79b00;" edge="1" parent="1" source="FSiC2wcye2wgbx9kc-YP-75" target="FSiC2wcye2wgbx9kc-YP-35">
          <mxGeometry relative="1" as="geometry" />
        </mxCell>
        <mxCell id="FSiC2wcye2wgbx9kc-YP-78" value="操作数据库" style="edgeLabel;html=1;align=center;verticalAlign=middle;resizable=0;points=[];sketch=1;hachureGap=4;jiggle=2;curveFitting=1;fontFamily=Architects Daughter;fontSource=https%3A%2F%2Ffonts.googleapis.com%2Fcss%3Ffamily%3DArchitects%2BDaughter;fontSize=14;fontColor=#3333FF;" vertex="1" connectable="0" parent="FSiC2wcye2wgbx9kc-YP-77">
          <mxGeometry x="-0.5773" relative="1" as="geometry">
            <mxPoint as="offset" />
          </mxGeometry>
        </mxCell>
        <mxCell id="FSiC2wcye2wgbx9kc-YP-79" style="edgeStyle=orthogonalEdgeStyle;rounded=0;sketch=1;hachureGap=4;jiggle=2;curveFitting=1;orthogonalLoop=1;jettySize=auto;html=1;fontFamily=Architects Daughter;fontSource=https%3A%2F%2Ffonts.googleapis.com%2Fcss%3Ffamily%3DArchitects%2BDaughter;entryX=0.75;entryY=1;entryDx=0;entryDy=0;fillColor=#ffcd28;gradientColor=#ffa500;strokeColor=#d79b00;" edge="1" parent="1" source="FSiC2wcye2wgbx9kc-YP-76" target="FSiC2wcye2wgbx9kc-YP-41">
          <mxGeometry relative="1" as="geometry" />
        </mxCell>
        <mxCell id="FSiC2wcye2wgbx9kc-YP-80" value="操作数据库" style="edgeLabel;html=1;align=center;verticalAlign=middle;resizable=0;points=[];sketch=1;hachureGap=4;jiggle=2;curveFitting=1;fontFamily=Architects Daughter;fontSource=https%3A%2F%2Ffonts.googleapis.com%2Fcss%3Ffamily%3DArchitects%2BDaughter;fontSize=14;fontColor=#3333FF;" vertex="1" connectable="0" parent="FSiC2wcye2wgbx9kc-YP-79">
          <mxGeometry x="-0.4617" y="-2" relative="1" as="geometry">
            <mxPoint as="offset" />
          </mxGeometry>
        </mxCell>
        <mxCell id="FSiC2wcye2wgbx9kc-YP-84" style="edgeStyle=orthogonalEdgeStyle;rounded=0;sketch=1;hachureGap=4;jiggle=2;curveFitting=1;orthogonalLoop=1;jettySize=auto;html=1;entryX=0;entryY=0.5;entryDx=0;entryDy=0;fontFamily=Architects Daughter;fontSource=https%3A%2F%2Ffonts.googleapis.com%2Fcss%3Ffamily%3DArchitects%2BDaughter;" edge="1" parent="1" source="FSiC2wcye2wgbx9kc-YP-69" target="FSiC2wcye2wgbx9kc-YP-75">
          <mxGeometry relative="1" as="geometry" />
        </mxCell>
        <mxCell id="FSiC2wcye2wgbx9kc-YP-85" style="edgeStyle=orthogonalEdgeStyle;rounded=0;sketch=1;hachureGap=4;jiggle=2;curveFitting=1;orthogonalLoop=1;jettySize=auto;html=1;fontFamily=Architects Daughter;fontSource=https%3A%2F%2Ffonts.googleapis.com%2Fcss%3Ffamily%3DArchitects%2BDaughter;" edge="1" parent="1" source="FSiC2wcye2wgbx9kc-YP-68" target="FSiC2wcye2wgbx9kc-YP-76">
          <mxGeometry relative="1" as="geometry" />
        </mxCell>
        <mxCell id="FSiC2wcye2wgbx9kc-YP-37" style="edgeStyle=orthogonalEdgeStyle;rounded=0;sketch=1;hachureGap=4;jiggle=2;curveFitting=1;orthogonalLoop=1;jettySize=auto;html=1;fontFamily=Architects Daughter;fontSource=https%3A%2F%2Ffonts.googleapis.com%2Fcss%3Ffamily%3DArchitects%2BDaughter;fontSize=14;fillColor=#ffcd28;gradientColor=#ffa500;strokeColor=#d79b00;entryX=0;entryY=0.5;entryDx=0;entryDy=0;" edge="1" parent="1" source="FSiC2wcye2wgbx9kc-YP-34" target="FSiC2wcye2wgbx9kc-YP-35">
          <mxGeometry relative="1" as="geometry">
            <mxPoint x="670" y="300" as="targetPoint" />
            <Array as="points">
              <mxPoint x="640" y="300" />
              <mxPoint x="640" y="300" />
            </Array>
          </mxGeometry>
        </mxCell>
        <mxCell id="FSiC2wcye2wgbx9kc-YP-38" value="query" style="edgeLabel;html=1;align=center;verticalAlign=middle;resizable=0;points=[];sketch=1;hachureGap=4;jiggle=2;curveFitting=1;fontFamily=Architects Daughter;fontSource=https%3A%2F%2Ffonts.googleapis.com%2Fcss%3Ffamily%3DArchitects%2BDaughter;fontSize=14;fontColor=#3333FF;" vertex="1" connectable="0" parent="FSiC2wcye2wgbx9kc-YP-37">
          <mxGeometry x="0.3466" y="3" relative="1" as="geometry">
            <mxPoint x="-14" as="offset" />
          </mxGeometry>
        </mxCell>
      </root>
    </mxGraphModel>
  </diagram>
</mxfile>
